<?xml version="1.0" encoding="UTF-8" standalone="no"?><!DOCTYPE svg PUBLIC "-//W3C//DTD SVG 1.1//EN" "http://www.w3.org/Graphics/SVG/1.1/DTD/svg11.dtd"><svg width="100%" height="100%" viewBox="0 0 5671 1510" version="1.1" xmlns="http://www.w3.org/2000/svg" xmlns:xlink="http://www.w3.org/1999/xlink" xml:space="preserve" xmlns:serif="http://www.serif.com/" style="fill-rule:evenodd;clip-rule:evenodd;stroke-linejoin:round;stroke-miterlimit:2;"><g><g><path d="M992.147,955.54l0,266.634l-103.062,-0l0,-266.634c0,-46.704 -17.546,-86.612 -52.639,-119.724c-35.093,-33.111 -77.389,-49.667 -126.889,-49.667c-49.499,0 -91.795,16.556 -126.888,49.667c-35.093,33.112 -52.639,73.02 -52.639,119.724c-0,46.705 17.546,86.613 52.639,119.724c35.093,33.111 77.389,49.667 126.888,49.667c16.993,-0 33.985,-2.091 50.977,-6.274l0,99.334c-16.992,2.789 -33.984,4.183 -50.977,4.183c-78.312,-0 -144.988,-25.966 -200.029,-77.899c-55.04,-51.933 -82.56,-114.67 -82.56,-188.212c-0,-73.542 27.52,-136.454 82.56,-188.735c55.041,-52.281 121.532,-78.421 199.475,-78.421c77.943,-0 144.62,26.14 200.03,78.421c55.409,52.281 83.114,115.019 83.114,188.212Z" style="fill-rule:nonzero;"/><path d="M1353.42,787.195c-44.328,6.274 -81.083,25.269 -110.265,56.986c-29.183,31.718 -43.774,68.837 -43.774,111.359l-0,266.634l-103.062,-0l-0,-266.634c-0,-69.011 24.749,-128.96 74.249,-179.847c49.499,-50.887 110.45,-79.467 182.852,-85.741l0,97.243Z" style="fill-rule:nonzero;"/><path d="M1904.19,1144.8c-55.41,51.584 -122.086,77.376 -200.029,77.376c-77.943,-0 -144.435,-25.966 -199.475,-77.899c-55.041,-51.933 -82.561,-114.844 -82.561,-188.735l0,-484.123l103.062,0l0,484.123c0,46.705 17.547,86.787 52.64,120.247c35.093,33.46 77.389,50.19 126.888,50.19c49.499,-0 91.796,-16.73 126.888,-50.19c35.093,-33.46 52.64,-73.542 52.64,-120.247c-0,-46.704 -17.547,-86.612 -52.64,-119.724c-35.092,-33.111 -77.389,-49.667 -126.888,-49.667c-17.731,0 -34.723,2.44 -50.977,7.32l0,-100.38c16.254,-2.788 33.246,-4.182 50.977,-4.182c77.574,-0 144.065,26.14 199.475,78.421c55.41,52.281 83.115,115.193 83.115,188.735c-0,73.542 -27.705,136.454 -83.115,188.735Z" style="fill-rule:nonzero;"/><path d="M2099.24,559.249c-11.082,-11.153 -16.623,-24.398 -16.623,-39.733c-0,-15.336 5.725,-28.406 17.177,-39.211c11.451,-10.805 25.304,-16.207 41.557,-16.207c16.254,-0 30.291,5.402 42.112,16.207c11.82,10.805 17.731,23.875 17.731,39.211c-0,15.335 -5.911,28.406 -17.731,39.211c-11.821,10.804 -25.858,16.207 -42.112,16.207c-16.253,-0 -30.291,-5.228 -42.111,-15.685Zm-8.866,662.925l0,-533.267l103.062,-0l0,533.267l-103.062,-0Z" style="fill-rule:nonzero;"/><path d="M2737.55,1065.33c0,43.219 -16.069,80.164 -48.206,110.835c-32.138,30.672 -71.109,46.008 -116.915,46.008l-257.101,-0l-0,-96.197l257.101,-0c17.731,-0 32.877,-5.926 45.436,-17.776c12.56,-11.85 18.84,-26.141 18.84,-42.87c-0,-16.73 -6.28,-31.021 -18.84,-42.871c-12.559,-11.85 -27.705,-17.776 -45.436,-17.776l-107.495,0c-45.066,0 -83.669,-15.335 -115.806,-46.007c-32.138,-30.672 -48.207,-67.268 -48.207,-109.79c0,-43.219 16.069,-80.165 48.207,-110.836c32.137,-30.672 71.109,-46.008 116.914,-46.008l233.83,0l-0,96.198l-232.721,-0c-17.732,-0 -32.877,5.925 -45.436,17.775c-12.56,11.851 -18.84,26.141 -18.84,42.871c0,16.73 6.28,31.02 18.84,42.87c12.559,11.851 27.704,17.776 45.436,17.776l106.386,-0c45.806,-0 84.593,15.336 116.361,46.007c31.768,30.672 47.652,67.269 47.652,109.791Z" style="fill-rule:nonzero;"/><path d="M3393.61,956.586c0,73.193 -27.705,135.756 -83.115,187.689c-55.409,51.933 -121.901,77.899 -199.475,77.899c-16.992,-0 -33.984,-1.394 -50.977,-4.183l0,-99.334c16.254,4.183 33.246,6.274 50.977,6.274c49.5,-0 91.796,-16.556 126.889,-49.667c35.092,-33.111 52.639,-73.019 52.639,-119.724c-0,-46.704 -17.547,-86.612 -52.639,-119.724c-35.093,-33.111 -77.389,-49.667 -126.889,-49.667c-49.499,0 -91.795,16.556 -126.888,49.667c-35.093,33.112 -52.639,73.02 -52.639,119.724l-0,485.169l-103.063,-0l0,-485.169c0,-73.193 27.521,-135.931 82.561,-188.212c55.04,-52.281 121.532,-78.421 199.475,-78.421c77.943,-0 144.62,26.14 200.029,78.421c55.41,52.281 83.115,115.367 83.115,189.258Z" style="fill-rule:nonzero;"/><path d="M3394.19,767.328c55.41,-52.281 122.087,-78.421 200.03,-78.421c77.943,-0 144.619,26.14 200.029,78.421c55.41,52.281 83.115,115.193 83.115,188.735c-0,73.542 -27.705,136.279 -83.115,188.212c-55.41,51.933 -122.086,77.899 -200.029,77.899c-77.943,-0 -144.435,-25.966 -199.476,-77.899c-55.04,-51.933 -82.56,-114.67 -82.56,-188.212c-0,-73.542 27.335,-136.454 82.006,-188.735Zm200.584,357.603c49.499,-0 91.795,-16.556 126.888,-49.667c35.093,-33.111 52.639,-73.019 52.639,-119.724c0,-55.069 -22.902,-99.334 -68.708,-132.794c-11.082,-8.365 -22.902,-15.336 -35.462,-20.912c-4.433,-2.092 -8.866,-3.834 -13.298,-5.228c-19.948,-6.971 -40.634,-10.457 -62.059,-10.457c-49.5,0 -91.796,16.556 -126.889,49.667c-35.093,33.112 -52.639,73.02 -52.639,119.724c0,55.07 22.903,99.683 68.708,133.84c32.507,23.701 69.447,35.551 110.82,35.551Z" style="fill-rule:nonzero;"/><path d="M4248.61,1222.17c-78.312,-0 -144.989,-25.966 -200.029,-77.899c-55.041,-51.933 -82.561,-114.844 -82.561,-188.735l0,-411.975l103.062,0l0,218.535l154.04,0l-0,96.197l-154.04,0l0,97.243c0,46.705 17.547,86.613 52.64,119.724c35.093,33.111 77.389,49.667 126.888,49.667c16.992,-0 33.985,-2.091 50.977,-6.274l0,99.334c-16.992,2.789 -33.985,4.183 -50.977,4.183Z" style="fill-rule:nonzero;"/><path d="M4658.64,1222.17c-78.312,-0 -144.988,-25.966 -200.029,-77.899c-55.04,-51.933 -82.56,-114.844 -82.56,-188.735l-0,-411.975l103.062,0l-0,218.535l154.039,0l-0,96.197l-154.039,0l-0,97.243c-0,46.705 17.546,86.613 52.639,119.724c35.093,33.111 77.389,49.667 126.888,49.667c16.993,-0 33.985,-2.091 50.977,-6.274l0,99.334c-16.992,2.789 -33.984,4.183 -50.977,4.183Z" style="fill-rule:nonzero;"/><path d="M5142.1,1090.42l83.115,61.692c-14.776,13.245 -32.508,25.095 -53.194,35.551l-9.974,6.274c-39.895,18.821 -82.375,28.232 -127.442,28.232c-62.798,-0 -119.316,-17.776 -169.554,-53.327c-50.238,-35.551 -84.223,-81.907 -101.954,-139.068l-2.216,-7.319c-5.911,-21.61 -8.866,-43.916 -8.866,-66.92c0,-73.193 27.52,-135.931 82.561,-188.212c55.04,-52.281 121.716,-78.421 200.029,-78.421c48.022,-0 93.088,11.153 135.2,33.459l3.324,1.046c37.679,20.215 69.078,47.402 94.197,81.559l-161.797,196.577l-80.898,-59.601l105.279,-127.566l-25.489,-14.639c-17.731,-9.062 -41.003,-13.593 -69.816,-13.593c-49.5,0 -91.796,16.556 -126.889,49.667c-35.092,33.112 -52.639,73.02 -52.639,119.724c0,40.431 13.668,76.331 41.003,107.699c27.336,31.369 62.059,50.887 104.171,58.555c5.171,1.394 12.559,2.44 22.164,3.137l17.731,-0c37.679,-1.394 71.663,-12.896 101.954,-34.506Z" style="fill-rule:nonzero;"/><path d="M5600.9,787.195c-44.328,6.274 -81.083,25.269 -110.266,56.986c-29.182,31.718 -43.773,68.837 -43.773,111.359l-0,266.634l-103.063,-0l0,-266.634c0,-69.011 24.75,-128.96 74.25,-179.847c49.499,-50.887 110.45,-79.467 182.852,-85.741l-0,97.243Z" style="fill-rule:nonzero;"/></g><g><g><g><path d="M317.75,855.196l0,47.67c0,13.155 -10.68,23.836 -23.835,23.836l-101.711,-0c-13.155,-0 -23.835,-10.681 -23.835,-23.836l-0,-47.67c-0,-13.155 10.68,-23.835 23.835,-23.835l101.711,-0c13.155,-0 23.835,10.68 23.835,23.835Z"/><path d="M320.354,855.196l0,47.67c0,7.297 -2.961,13.907 -7.747,18.692c-4.786,4.786 -11.396,7.748 -18.692,7.748l-101.711,-0c-7.296,-0 -13.907,-2.962 -18.692,-7.748c-4.786,-4.785 -7.748,-11.395 -7.748,-18.692l0,-47.67c0,-7.296 2.962,-13.906 7.748,-18.692c4.785,-4.786 11.396,-7.748 18.692,-7.748l101.711,0c7.296,0 13.906,2.962 18.692,7.748c4.786,4.786 7.747,11.396 7.747,18.692Zm-5.208,-0c-0,-5.859 -2.379,-11.166 -6.222,-15.009c-3.843,-3.843 -9.15,-6.222 -15.009,-6.222l-101.711,-0c-5.859,-0 -11.167,2.379 -15.01,6.222c-3.843,3.843 -6.221,9.15 -6.221,15.009l-0,47.67c-0,5.859 2.378,11.167 6.221,15.01c3.843,3.843 9.151,6.221 15.01,6.221l101.711,0c5.859,0 11.166,-2.378 15.009,-6.221c3.843,-3.843 6.222,-9.151 6.222,-15.01l-0,-47.67Z" style="fill:#fff;"/><path d="M317.75,950.537l0,47.67c0,13.155 -10.68,23.835 -23.835,23.835l-101.711,0c-13.155,0 -23.835,-10.68 -23.835,-23.835l-0,-47.67c-0,-13.155 10.68,-23.835 23.835,-23.835l101.711,-0c13.155,-0 23.835,10.68 23.835,23.835Z"/><path d="M320.354,950.537l0,47.67c0,7.296 -2.961,13.907 -7.747,18.692c-4.786,4.786 -11.396,7.748 -18.692,7.748l-101.711,-0c-7.296,-0 -13.907,-2.962 -18.692,-7.748c-4.786,-4.785 -7.748,-11.396 -7.748,-18.692l0,-47.67c0,-7.296 2.962,-13.907 7.748,-18.692c4.785,-4.786 11.396,-7.748 18.692,-7.748l101.711,0c7.296,0 13.906,2.962 18.692,7.748c4.786,4.785 7.747,11.396 7.747,18.692Zm-5.208,-0c-0,-5.859 -2.379,-11.167 -6.222,-15.01c-3.843,-3.843 -9.15,-6.221 -15.009,-6.221l-101.711,-0c-5.859,-0 -11.167,2.378 -15.01,6.221c-3.843,3.843 -6.221,9.151 -6.221,15.01l-0,47.67c-0,5.859 2.378,11.167 6.221,15.01c3.843,3.843 9.151,6.221 15.01,6.221l101.711,0c5.859,0 11.166,-2.378 15.009,-6.221c3.843,-3.843 6.222,-9.151 6.222,-15.01l-0,-47.67Z" style="fill:#fff;"/><path d="M317.75,1045.88l0,47.67c0,13.155 -10.68,23.835 -23.835,23.835l-101.711,0c-13.155,0 -23.835,-10.68 -23.835,-23.835l-0,-47.67c-0,-13.155 10.68,-23.836 23.835,-23.836l101.711,0c13.155,0 23.835,10.681 23.835,23.836Z"/><path d="M320.354,1045.88l0,47.67c0,7.296 -2.961,13.906 -7.747,18.692c-4.786,4.786 -11.396,7.748 -18.692,7.748l-101.711,-0c-7.296,-0 -13.907,-2.962 -18.692,-7.748c-4.786,-4.786 -7.748,-11.396 -7.748,-18.692l0,-47.67c0,-7.297 2.962,-13.907 7.748,-18.692c4.785,-4.786 11.396,-7.748 18.692,-7.748l101.711,0c7.296,0 13.906,2.962 18.692,7.748c4.786,4.785 7.747,11.395 7.747,18.692Zm-5.208,-0c-0,-5.859 -2.379,-11.167 -6.222,-15.01c-3.843,-3.843 -9.15,-6.221 -15.009,-6.221l-101.711,-0c-5.859,-0 -11.167,2.378 -15.01,6.221c-3.843,3.843 -6.221,9.151 -6.221,15.01l-0,47.67c-0,5.859 2.378,11.166 6.221,15.009c3.843,3.843 9.151,6.222 15.01,6.222l101.711,0c5.859,0 11.166,-2.379 15.009,-6.222c3.843,-3.843 6.222,-9.15 6.222,-15.009l-0,-47.67Z" style="fill:#fff;"/><path d="M317.75,1141.22l0,47.67c0,13.155 -10.68,23.835 -23.835,23.835l-101.711,0c-13.155,0 -23.835,-10.68 -23.835,-23.835l-0,-47.67c-0,-13.155 10.68,-23.836 23.835,-23.836l101.711,0c13.155,0 23.835,10.681 23.835,23.836Z"/><path d="M320.354,1141.22l0,47.67c0,7.296 -2.961,13.906 -7.747,18.692c-4.786,4.786 -11.396,7.747 -18.692,7.747l-101.711,0c-7.296,0 -13.907,-2.961 -18.692,-7.747c-4.786,-4.786 -7.748,-11.396 -7.748,-18.692l0,-47.67c0,-7.297 2.962,-13.907 7.748,-18.693c4.785,-4.785 11.396,-7.747 18.692,-7.747l101.711,0c7.296,0 13.906,2.962 18.692,7.747c4.786,4.786 7.747,11.396 7.747,18.693Zm-5.208,-0c-0,-5.859 -2.379,-11.167 -6.222,-15.01c-3.843,-3.843 -9.15,-6.221 -15.009,-6.221l-101.711,-0c-5.859,-0 -11.167,2.378 -15.01,6.221c-3.843,3.843 -6.221,9.151 -6.221,15.01l-0,47.67c-0,5.859 2.378,11.166 6.221,15.009c3.843,3.843 9.151,6.222 15.01,6.222l101.711,0c5.859,0 11.166,-2.379 15.009,-6.222c3.843,-3.843 6.222,-9.15 6.222,-15.009l-0,-47.67Z" style="fill:#fff;"/></g><path d="M710.163,336.89c-0,73.193 -27.705,135.756 -83.115,187.689c-55.41,51.932 -121.902,77.899 -199.475,77.899c-16.993,-0 -33.985,-1.395 -50.977,-4.183l-0,-99.334c16.253,4.183 33.246,6.274 50.977,6.274c49.499,-0 91.795,-16.556 126.888,-49.667c35.093,-33.112 52.639,-73.02 52.639,-119.724c0,-46.704 -17.546,-86.612 -52.639,-119.724c-35.093,-33.111 -77.389,-49.667 -126.888,-49.667c-49.5,0 -91.796,16.556 -126.889,49.667c-35.093,33.112 -52.639,73.02 -52.639,119.724l-1.01,886.33l-103.062,-0l1.01,-886.33c-0,-73.194 27.52,-135.931 82.56,-188.212c55.041,-52.281 121.532,-78.422 199.476,-78.422c77.943,0 144.619,26.141 200.029,78.422c55.41,52.281 83.115,115.367 83.115,189.258Z" style="fill-rule:nonzero;"/><path d="M218.663,897.45l0,47.671c0,13.155 -10.68,23.835 -23.835,23.835l-101.711,0c-13.155,0 -23.835,-10.68 -23.835,-23.835l-0,-47.671c-0,-13.155 10.68,-23.835 23.835,-23.835l101.711,0c13.155,0 23.835,10.68 23.835,23.835Z"/><path d="M221.919,897.45l-0,47.671c-0,7.476 -3.035,14.249 -7.938,19.152c-4.904,4.904 -11.677,7.938 -19.153,7.938l-101.711,0c-7.476,0 -14.249,-3.034 -19.152,-7.938c-4.904,-4.903 -7.938,-11.676 -7.938,-19.152l-0,-47.671c-0,-7.475 3.034,-14.248 7.938,-19.152c4.903,-4.904 11.676,-7.938 19.152,-7.938l101.711,0c7.476,0 14.249,3.034 19.153,7.938c4.903,4.904 7.938,11.677 7.938,19.152Zm-6.511,0c0,-5.679 -2.306,-10.823 -6.031,-14.549c-3.725,-3.725 -8.87,-6.031 -14.549,-6.031l-101.711,0c-5.679,0 -10.824,2.306 -14.549,6.031c-3.725,3.726 -6.031,8.87 -6.031,14.549l0,47.671c0,5.679 2.306,10.824 6.031,14.549c3.725,3.725 8.87,6.031 14.549,6.031l101.711,-0c5.679,-0 10.824,-2.306 14.549,-6.031c3.725,-3.725 6.031,-8.87 6.031,-14.549l0,-47.671Z" style="fill:#fff;"/></g><path d="M710.749,147.632c55.41,-52.281 122.086,-78.422 200.029,-78.422c77.943,0 144.62,26.141 200.029,78.422c55.41,52.281 83.115,115.193 83.115,188.735c0,73.542 -27.705,136.279 -83.115,188.212c-55.409,51.932 -122.086,77.899 -200.029,77.899c-77.943,-0 -144.435,-25.967 -199.475,-77.899c-55.041,-51.933 -82.561,-114.67 -82.561,-188.212c0,-73.542 27.336,-136.454 82.007,-188.735Zm200.583,357.603c49.5,-0 91.796,-16.556 126.889,-49.667c35.092,-33.112 52.639,-73.02 52.639,-119.724c-0,-55.069 -22.903,-99.334 -68.708,-132.794c-11.082,-8.365 -22.903,-15.336 -35.463,-20.912c-4.432,-2.092 -8.865,-3.834 -13.298,-5.229c-19.947,-6.97 -40.634,-10.456 -62.059,-10.456c-49.499,0 -91.795,16.556 -126.888,49.667c-35.093,33.112 -52.64,73.02 -52.64,119.724c0,55.069 22.903,99.683 68.709,133.84c32.507,23.7 69.447,35.551 110.819,35.551Z" style="fill-rule:nonzero;"/><circle cx="466.797" cy="336.367" r="59.288"/><circle cx="953.587" cy="336.367" r="59.288"/></g></g></svg>