<?xml version="1.0" encoding="UTF-8" standalone="no"?>
<!DOCTYPE svg PUBLIC "-//W3C//DTD SVG 1.1//EN" "http://www.w3.org/Graphics/SVG/1.1/DTD/svg11.dtd">
<svg width="127" height="34" viewBox="0 0 1815 484" version="1.1" xmlns="http://www.w3.org/2000/svg" xmlns:xlink="http://www.w3.org/1999/xlink" xml:space="preserve" xmlns:serif="http://www.serif.com/" style="fill-rule:evenodd;clip-rule:evenodd;stroke-linejoin:round;stroke-miterlimit:2;">
    <g transform="matrix(0.906016,0,0,0.906016,-1277.84,-663.133)">
        <g transform="matrix(1.48184,0,0,1.48184,-498.247,390.519)">
            <g transform="matrix(1.74018,0,0,1.13885,-877.367,-1057.58)">
                <path d="M1357.71,1247.92L1357.71,1303.33L1343.69,1303.33L1343.69,1247.92C1343.69,1238.21 1341.31,1229.92 1336.53,1223.04C1331.76,1216.16 1326.01,1212.72 1319.28,1212.72C1312.54,1212.72 1306.79,1216.16 1302.02,1223.04C1297.25,1229.92 1294.86,1238.21 1294.86,1247.92C1294.86,1257.62 1297.25,1265.92 1302.02,1272.8C1306.79,1279.68 1312.54,1283.12 1319.28,1283.12C1321.59,1283.12 1323.9,1282.68 1326.21,1281.82L1326.21,1302.46C1323.9,1303.04 1321.59,1303.33 1319.28,1303.33C1308.62,1303.33 1299.56,1297.93 1292.07,1287.14C1284.59,1276.35 1280.84,1263.31 1280.84,1248.03C1280.84,1232.75 1284.59,1219.67 1292.07,1208.81C1299.56,1197.94 1308.6,1192.51 1319.2,1192.51C1329.8,1192.51 1338.87,1197.94 1346.4,1208.81C1353.94,1219.67 1357.71,1232.71 1357.71,1247.92Z" style="fill:rgb(230,255,43);fill-rule:nonzero;"/>
                <path d="M1406.84,1212.93C1400.81,1214.24 1395.81,1218.19 1391.84,1224.78C1387.88,1231.37 1385.89,1239.08 1385.89,1247.92L1385.89,1303.33L1371.87,1303.33L1371.87,1247.92C1371.87,1233.58 1375.24,1221.12 1381.97,1210.55C1388.7,1199.97 1396.99,1194.03 1406.84,1192.73L1406.84,1212.93Z" style="fill:rgb(230,255,43);fill-rule:nonzero;"/>
                <path d="M1481.74,1287.25C1474.21,1297.97 1465.14,1303.33 1454.54,1303.33C1443.94,1303.33 1434.9,1297.93 1427.41,1287.14C1419.93,1276.35 1416.18,1263.27 1416.18,1247.92L1416.18,1147.31L1430.2,1147.31L1430.2,1247.92C1430.2,1257.62 1432.59,1265.95 1437.36,1272.91C1442.13,1279.86 1447.88,1283.34 1454.62,1283.34C1461.35,1283.34 1467.1,1279.86 1471.87,1272.91C1476.64,1265.95 1479.03,1257.62 1479.03,1247.92C1479.03,1238.21 1476.64,1229.92 1471.87,1223.04C1467.1,1216.16 1461.35,1212.72 1454.62,1212.72C1452.2,1212.72 1449.89,1213.23 1447.68,1214.24L1447.68,1193.38C1449.89,1192.8 1452.2,1192.51 1454.62,1192.51C1465.16,1192.51 1474.21,1197.94 1481.74,1208.81C1489.28,1219.67 1493.05,1232.75 1493.05,1248.03C1493.05,1263.31 1489.28,1276.38 1481.74,1287.25Z" style="fill:rgb(230,255,43);fill-rule:nonzero;"/>
                <path d="M1508.27,1165.57C1506.76,1163.25 1506.01,1160.5 1506.01,1157.31C1506.01,1154.12 1506.79,1151.41 1508.34,1149.16C1509.9,1146.92 1511.79,1145.79 1514,1145.79C1516.21,1145.79 1518.12,1146.92 1519.72,1149.16C1521.33,1151.41 1522.13,1154.12 1522.13,1157.31C1522.13,1160.5 1521.33,1163.21 1519.72,1165.46C1518.12,1167.7 1516.21,1168.83 1514,1168.83C1511.79,1168.83 1509.88,1167.74 1508.27,1165.57ZM1507.06,1303.33L1507.06,1192.51L1521.08,1192.51L1521.08,1303.33L1507.06,1303.33Z" style="fill:rgb(230,255,43);fill-rule:nonzero;"/>
                <path d="M1595.08,1270.73C1595.08,1279.71 1592.89,1287.39 1588.52,1293.77C1584.15,1300.14 1578.85,1303.33 1572.62,1303.33L1537.66,1303.33L1537.66,1283.34L1572.62,1283.34C1575.03,1283.34 1577.09,1282.11 1578.8,1279.64C1580.51,1277.18 1581.36,1274.21 1581.36,1270.73C1581.36,1267.26 1580.51,1264.29 1578.8,1261.83C1577.09,1259.36 1575.03,1258.13 1572.62,1258.13L1558,1258.13C1551.87,1258.13 1546.62,1254.94 1542.25,1248.57C1537.88,1242.2 1535.7,1234.59 1535.7,1225.76C1535.7,1216.77 1537.88,1209.1 1542.25,1202.72C1546.62,1196.35 1551.92,1193.16 1558.15,1193.16L1589.95,1193.16L1589.95,1213.15L1558.31,1213.15C1555.89,1213.15 1553.83,1214.38 1552.12,1216.85C1550.42,1219.31 1549.56,1222.28 1549.56,1225.76C1549.56,1229.23 1550.42,1232.2 1552.12,1234.66C1553.83,1237.13 1555.89,1238.36 1558.31,1238.36L1572.77,1238.36C1579,1238.36 1584.28,1241.55 1588.6,1247.92C1592.92,1254.29 1595.08,1261.9 1595.08,1270.73Z" style="fill:rgb(230,255,43);fill-rule:nonzero;"/>
                <g transform="matrix(1,0,0,1,-21.4721,0)">
                    <path d="M1705.85,1208.81C1713.39,1197.94 1722.45,1192.51 1733.06,1192.51C1743.65,1192.51 1752.72,1197.94 1760.26,1208.81C1767.79,1219.67 1771.56,1232.75 1771.56,1248.03C1771.56,1263.31 1767.79,1276.35 1760.26,1287.14C1752.72,1297.93 1743.65,1303.33 1733.06,1303.33C1722.45,1303.33 1713.41,1297.93 1705.93,1287.14C1698.44,1276.35 1694.7,1263.31 1694.7,1248.03C1694.7,1232.75 1698.42,1219.67 1705.85,1208.81ZM1733.13,1283.12C1739.86,1283.12 1745.61,1279.68 1750.39,1272.8C1755.16,1265.92 1757.55,1257.62 1757.55,1247.92C1757.55,1236.48 1754.43,1227.28 1748.2,1220.32C1746.69,1218.59 1745.09,1217.14 1743.38,1215.98C1742.78,1215.54 1742.17,1215.18 1741.57,1214.89C1738.86,1213.44 1736.04,1212.72 1733.13,1212.72C1726.4,1212.72 1720.65,1216.16 1715.87,1223.04C1711.1,1229.92 1708.72,1238.21 1708.72,1247.92C1708.72,1259.36 1711.83,1268.63 1718.06,1275.73C1722.48,1280.66 1727.5,1283.12 1733.13,1283.12Z" style="fill:rgb(230,255,43);fill-rule:nonzero;"/>
                </g>
                <g transform="matrix(1,0,0,1,-21.4721,0)">
                    <path d="M1822.05,1303.33C1811.4,1303.33 1802.33,1297.93 1794.85,1287.14C1787.36,1276.35 1783.62,1263.27 1783.62,1247.92L1783.62,1162.31L1797.63,1162.31L1797.63,1207.72L1818.58,1207.72L1818.58,1227.71L1797.63,1227.71L1797.63,1247.92C1797.63,1257.62 1800.02,1265.92 1804.79,1272.8C1809.57,1279.68 1815.32,1283.12 1822.05,1283.12C1824.36,1283.12 1826.67,1282.68 1828.98,1281.82L1828.98,1302.46C1826.67,1303.04 1824.36,1303.33 1822.05,1303.33Z" style="fill:rgb(230,255,43);fill-rule:nonzero;"/>
                </g>
                <g transform="matrix(1,0,0,1,-21.4721,0)">
                    <path d="M1877.81,1303.33C1867.16,1303.33 1858.1,1297.93 1850.61,1287.14C1843.12,1276.35 1839.38,1263.27 1839.38,1247.92L1839.38,1162.31L1853.4,1162.31L1853.4,1207.72L1874.35,1207.72L1874.35,1227.71L1853.4,1227.71L1853.4,1247.92C1853.4,1257.62 1855.79,1265.92 1860.56,1272.8C1865.33,1279.68 1871.08,1283.12 1877.81,1283.12C1880.12,1283.12 1882.44,1282.68 1884.75,1281.82L1884.75,1302.46C1882.44,1303.04 1880.12,1303.33 1877.81,1303.33Z" style="fill:rgb(230,255,43);fill-rule:nonzero;"/>
                </g>
                <g transform="matrix(1,0,0,1,-21.4721,0)">
                    <path d="M1943.56,1275.95L1954.87,1288.77C1952.86,1291.52 1950.44,1293.98 1947.63,1296.16L1946.28,1297.46C1940.85,1301.37 1935.07,1303.33 1928.94,1303.33C1920.4,1303.33 1912.72,1299.63 1905.88,1292.25C1899.05,1284.86 1894.43,1275.23 1892.02,1263.35L1891.72,1261.83C1890.91,1257.33 1890.51,1252.7 1890.51,1247.92C1890.51,1232.71 1894.26,1219.67 1901.74,1208.81C1909.23,1197.94 1918.29,1192.51 1928.94,1192.51C1935.48,1192.51 1941.6,1194.83 1947.33,1199.46L1947.78,1199.68C1952.91,1203.88 1957.18,1209.53 1960.59,1216.63L1938.59,1257.48L1927.59,1245.09L1941.9,1218.59L1938.44,1215.54C1936.03,1213.66 1932.86,1212.72 1928.94,1212.72C1922.21,1212.72 1916.46,1216.16 1911.69,1223.04C1906.91,1229.92 1904.53,1238.21 1904.53,1247.92C1904.53,1256.32 1906.39,1263.78 1910.11,1270.3C1913.82,1276.82 1918.55,1280.87 1924.27,1282.47C1924.98,1282.76 1925.98,1282.97 1927.29,1283.12L1929.7,1283.12C1934.82,1282.83 1939.44,1280.44 1943.56,1275.95Z" style="fill:rgb(230,255,43);fill-rule:nonzero;"/>
                </g>
                <g transform="matrix(1,0,0,1,-21.4721,0)">
                    <path d="M2005.96,1212.93C1999.93,1214.24 1994.93,1218.19 1990.96,1224.78C1986.99,1231.37 1985.01,1239.08 1985.01,1247.92L1985.01,1303.33L1970.99,1303.33L1970.99,1247.92C1970.99,1233.58 1974.36,1221.12 1981.09,1210.55C1987.82,1199.97 1996.11,1194.03 2005.96,1192.73L2005.96,1212.93Z" style="fill:rgb(230,255,43);fill-rule:nonzero;"/>
                </g>
            </g>
            <g transform="matrix(1,0,0,1,-545.991,35.2556)">
                <circle cx="2542.02" cy="328.477" r="14.031" style="fill:rgb(230,255,43);"/>
            </g>
            <g transform="matrix(1,0,0,1,-430.787,35.2556)">
                <circle cx="2542.02" cy="328.477" r="14.031" style="fill:rgb(230,255,43);"/>
            </g>
        </g>
        <g transform="matrix(1.48184,0,0,1.48184,468.37,-275.143)">
            <g transform="matrix(1,0,0,1,-0.0994184,-3.15573)">
                <g transform="matrix(1,0,0,0.769455,-5.70884,221.595)">
                    <path d="M1314.25,891.166L1314.25,905.828C1314.25,909.874 1311.72,913.159 1308.61,913.159L1284.54,913.159C1281.43,913.159 1278.9,909.874 1278.9,905.828L1278.9,891.166C1278.9,887.12 1281.43,883.835 1284.54,883.835L1308.61,883.835C1311.72,883.835 1314.25,887.12 1314.25,891.166Z" style="fill:rgb(230,255,43);"/>
                    <path d="M1315.8,891.166C1315.8,905.83 1315.92,905.842 1315.69,907.48C1315.08,911.899 1312.1,915.175 1308.62,915.175C1284.82,915.178 1284.81,915.338 1283.45,915.068C1279.96,914.375 1277.35,910.455 1277.35,905.84C1277.35,891.56 1277.28,891.558 1277.38,890.213C1277.76,885.462 1280.85,881.818 1284.53,881.818C1308.33,881.815 1308.34,881.655 1309.7,881.926C1311.35,882.253 1312.84,883.32 1313.93,884.881C1315.91,887.7 1315.8,890.928 1315.8,891.166ZM1312.71,891.166C1312.7,891.081 1312.7,890.99 1312.69,890.891C1312.59,888.127 1310.83,885.852 1308.6,885.851C1284.73,885.849 1284.71,885.658 1283.62,885.988C1281.85,886.517 1280.45,888.578 1280.45,891.178C1280.45,905.587 1280.35,905.599 1280.52,906.77C1280.85,909.196 1282.48,911.142 1284.55,911.142C1308.42,911.144 1308.44,911.336 1309.54,911.006C1311.61,910.384 1312.7,907.923 1312.7,905.966C1312.7,901.032 1312.7,896.099 1312.7,891.166L1312.71,891.166Z" style="fill:white;"/>
                </g>
                <g transform="matrix(1,0,0,0.769455,-5.70884,244.158)">
                    <path d="M1314.25,891.166L1314.25,905.828C1314.25,909.874 1311.72,913.159 1308.61,913.159L1284.54,913.159C1281.43,913.159 1278.9,909.874 1278.9,905.828L1278.9,891.166C1278.9,887.12 1281.43,883.835 1284.54,883.835L1308.61,883.835C1311.72,883.835 1314.25,887.12 1314.25,891.166Z" style="fill:rgb(230,255,43);"/>
                    <path d="M1315.8,891.166C1315.8,905.83 1315.92,905.842 1315.69,907.48C1315.08,911.899 1312.1,915.175 1308.62,915.175C1284.82,915.178 1284.81,915.338 1283.45,915.068C1279.96,914.375 1277.35,910.455 1277.35,905.84C1277.35,891.56 1277.28,891.558 1277.38,890.213C1277.76,885.462 1280.85,881.818 1284.53,881.818C1308.33,881.815 1308.34,881.655 1309.7,881.926C1311.35,882.253 1312.84,883.32 1313.93,884.881C1315.91,887.7 1315.8,890.928 1315.8,891.166ZM1312.71,891.166C1312.7,891.081 1312.7,890.99 1312.69,890.891C1312.59,888.127 1310.83,885.852 1308.6,885.851C1284.73,885.849 1284.71,885.658 1283.62,885.988C1281.85,886.517 1280.45,888.578 1280.45,891.178C1280.45,905.587 1280.35,905.599 1280.52,906.77C1280.85,909.196 1282.48,911.142 1284.55,911.142C1308.42,911.144 1308.44,911.336 1309.54,911.006C1311.61,910.384 1312.7,907.923 1312.7,905.966C1312.7,901.032 1312.7,896.099 1312.7,891.166L1312.71,891.166Z" style="fill:white;"/>
                </g>
                <g transform="matrix(1,0,0,0.769455,-5.70884,266.721)">
                    <path d="M1314.25,891.166L1314.25,905.828C1314.25,909.874 1311.72,913.159 1308.61,913.159L1284.54,913.159C1281.43,913.159 1278.9,909.874 1278.9,905.828L1278.9,891.166C1278.9,887.12 1281.43,883.835 1284.54,883.835L1308.61,883.835C1311.72,883.835 1314.25,887.12 1314.25,891.166Z" style="fill:rgb(230,255,43);"/>
                    <path d="M1315.8,891.166C1315.8,905.83 1315.92,905.842 1315.69,907.48C1315.08,911.899 1312.1,915.175 1308.62,915.175C1284.82,915.178 1284.81,915.338 1283.45,915.068C1279.96,914.375 1277.35,910.455 1277.35,905.84C1277.35,891.56 1277.28,891.558 1277.38,890.213C1277.76,885.462 1280.85,881.818 1284.53,881.818C1308.33,881.815 1308.34,881.655 1309.7,881.926C1311.35,882.253 1312.84,883.32 1313.93,884.881C1315.91,887.7 1315.8,890.928 1315.8,891.166ZM1312.71,891.166C1312.7,891.081 1312.7,890.99 1312.69,890.891C1312.59,888.127 1310.83,885.852 1308.6,885.851C1284.73,885.849 1284.71,885.658 1283.62,885.988C1281.85,886.517 1280.45,888.578 1280.45,891.178C1280.45,905.587 1280.35,905.599 1280.52,906.77C1280.85,909.196 1282.48,911.142 1284.55,911.142C1308.42,911.144 1308.44,911.336 1309.54,911.006C1311.61,910.384 1312.7,907.923 1312.7,905.966C1312.7,901.032 1312.7,896.099 1312.7,891.166L1312.71,891.166Z" style="fill:white;"/>
                </g>
                <g transform="matrix(1,0,0,0.769455,-5.70884,289.285)">
                    <path d="M1314.25,891.166L1314.25,905.828C1314.25,909.874 1311.72,913.159 1308.61,913.159L1284.54,913.159C1281.43,913.159 1278.9,909.874 1278.9,905.828L1278.9,891.166C1278.9,887.12 1281.43,883.835 1284.54,883.835L1308.61,883.835C1311.72,883.835 1314.25,887.12 1314.25,891.166Z" style="fill:rgb(230,255,43);"/>
                    <path d="M1315.8,891.166C1315.8,905.83 1315.92,905.842 1315.69,907.48C1315.08,911.899 1312.1,915.175 1308.62,915.175C1284.82,915.178 1284.81,915.338 1283.45,915.068C1279.96,914.375 1277.35,910.455 1277.35,905.84C1277.35,891.56 1277.28,891.558 1277.38,890.213C1277.76,885.462 1280.85,881.818 1284.53,881.818C1308.33,881.815 1308.34,881.655 1309.7,881.926C1311.35,882.253 1312.84,883.32 1313.93,884.881C1315.91,887.7 1315.8,890.928 1315.8,891.166ZM1312.71,891.166C1312.7,891.081 1312.7,890.99 1312.69,890.891C1312.59,888.127 1310.83,885.852 1308.6,885.851C1284.73,885.849 1284.71,885.658 1283.62,885.988C1281.85,886.517 1280.45,888.578 1280.45,891.178C1280.45,905.587 1280.35,905.599 1280.52,906.77C1280.85,909.196 1282.48,911.142 1284.55,911.142C1308.42,911.144 1308.44,911.336 1309.54,911.006C1311.61,910.384 1312.7,907.923 1312.7,905.966C1312.7,901.032 1312.7,896.099 1312.7,891.166L1312.71,891.166Z" style="fill:white;"/>
                </g>
            </g>
            <g transform="matrix(1.74018,0,0,1.13885,-1529.68,-608.365)">
                <path d="M1684.3,1248.14C1684.3,1263.35 1680.53,1276.35 1673,1287.14C1665.46,1297.93 1656.42,1303.33 1645.87,1303.33C1643.56,1303.33 1641.25,1303.04 1638.93,1302.46L1638.93,1281.82C1641.15,1282.68 1643.46,1283.12 1645.87,1283.12C1652.6,1283.12 1658.35,1279.68 1663.12,1272.8C1667.9,1265.92 1670.28,1257.62 1670.28,1247.92C1670.28,1238.21 1667.9,1229.92 1663.12,1223.04C1658.35,1216.16 1652.6,1212.72 1645.87,1212.72C1639.14,1212.72 1633.38,1216.16 1628.61,1223.04C1623.84,1229.92 1621.45,1238.21 1621.45,1247.92L1621.32,1432.1L1607.3,1432.1L1607.44,1247.92C1607.44,1232.71 1611.18,1219.67 1618.66,1208.81C1626.15,1197.94 1635.19,1192.51 1645.79,1192.51C1656.39,1192.51 1665.46,1197.94 1673,1208.81C1680.53,1219.67 1684.3,1232.78 1684.3,1248.14Z" style="fill:rgb(230,255,43);fill-rule:nonzero;"/>
            </g>
            <g transform="matrix(1,0,0,0.769455,-29.1497,229.721)">
                <path d="M1314.25,891.166L1314.25,905.828C1314.25,909.874 1311.72,913.159 1308.61,913.159L1284.54,913.159C1281.43,913.159 1278.9,909.874 1278.9,905.828L1278.9,891.166C1278.9,887.12 1281.43,883.835 1284.54,883.835L1308.61,883.835C1311.72,883.835 1314.25,887.12 1314.25,891.166Z" style="fill:rgb(230,255,43);"/>
                <path d="M1315.8,891.166C1315.8,905.83 1315.92,905.842 1315.69,907.48C1315.08,911.899 1312.1,915.175 1308.62,915.175C1284.82,915.178 1284.81,915.338 1283.45,915.068C1279.96,914.375 1277.35,910.455 1277.35,905.84C1277.35,891.56 1277.28,891.558 1277.38,890.213C1277.76,885.462 1280.85,881.818 1284.53,881.818C1308.33,881.815 1308.34,881.655 1309.7,881.926C1311.35,882.253 1312.84,883.32 1313.93,884.881C1315.91,887.7 1315.8,890.928 1315.8,891.166ZM1312.71,891.166C1312.7,891.081 1312.7,890.99 1312.69,890.891C1312.59,888.127 1310.83,885.852 1308.6,885.851C1284.73,885.849 1284.71,885.658 1283.62,885.988C1281.85,886.517 1280.45,888.578 1280.45,891.178C1280.45,905.587 1280.35,905.599 1280.52,906.77C1280.85,909.196 1282.48,911.142 1284.55,911.142C1308.42,911.144 1308.44,911.336 1309.54,911.006C1311.61,910.384 1312.7,907.923 1312.7,905.966C1312.7,901.032 1312.7,896.099 1312.7,891.166L1312.71,891.166Z" style="fill:white;"/>
            </g>
        </g>
        <g transform="matrix(1.07789,0,0,0.705416,156.01,262.27)">
            <g transform="matrix(0.693604,0,0,1,390.875,0)">
                <text x="1275.72px" y="1303.33px" style="font-family:'Helvetica';font-size:217.288px;fill:rgb(230,255,43);">move</text>
            </g>
            <g transform="matrix(0.693604,0,0,1,518.54,0)">
                <text x="1692.38px" y="1303.33px" style="font-family:'Helvetica';font-size:217.288px;fill:rgb(230,255,43);">fast</text>
            </g>
        </g>
        <g transform="matrix(1.07789,0,0,0.705416,1107.58,262.27)">
            <g transform="matrix(0.693604,0,0,1,390.875,0)">
                <text x="1275.72px" y="1303.33px" style="font-family:'Helvetica';font-size:217.288px;fill:rgb(230,255,43);">earn</text>
            </g>
            <g transform="matrix(0.693604,0,0,1,498.044,0)">
                <text x="1625.49px" y="1303.33px" style="font-family:'Helvetica';font-size:217.288px;fill:rgb(230,255,43);">easy</text>
            </g>
        </g>
    </g>
</svg>
