<svg width="832" height="950" viewBox="0 0 832 950" fill="none" xmlns="http://www.w3.org/2000/svg">
<rect width="832" height="558" fill="#0B4650"/>
<g opacity="0.15">
<path d="M532.083 489.115C532.083 527.149 546.749 559.672 576.08 586.66C605.411 613.649 640.609 627.132 681.675 627.132C690.671 627.132 699.665 626.407 708.659 624.958V573.353C700.057 575.527 691.06 576.603 681.675 576.603C655.473 576.603 633.083 567.994 614.506 550.8C595.929 533.584 586.64 512.854 586.64 488.566C586.64 464.301 595.929 443.549 614.506 426.354C633.083 409.138 655.473 400.529 681.675 400.529C707.879 400.529 730.267 409.138 748.845 426.354C767.422 443.549 776.709 464.301 776.709 488.566L777.244 949.193H831.801L831.267 488.566C831.267 450.532 816.698 417.922 787.562 390.757C758.426 363.593 723.227 350 681.968 350C640.708 350 605.411 363.593 576.08 390.757C546.749 417.922 532.083 450.708 532.083 489.115Z" fill="white"/>
<path d="M531.772 390.757C502.441 363.593 467.147 350 425.885 350C384.625 350 349.331 363.593 319.998 390.757C290.667 417.922 276 450.62 276 488.852C276 527.062 290.667 559.672 319.998 586.66C349.331 613.649 384.625 627.132 425.885 627.132C467.147 627.132 502.343 613.649 531.479 586.66C560.616 559.672 575.184 527.062 575.184 488.852C575.184 450.62 560.714 417.922 531.772 390.757ZM425.592 576.603C399.39 576.603 377 567.994 358.423 550.8C339.847 533.584 330.558 512.854 330.558 488.566C330.558 459.953 342.681 436.939 366.93 419.569C372.795 415.221 379.053 411.597 385.701 408.699C388.047 407.601 390.394 406.7 392.74 405.975C403.3 402.352 414.252 400.529 425.592 400.529C451.796 400.529 474.186 409.138 492.763 426.354C511.339 443.549 520.627 464.301 520.627 488.566C520.627 517.202 508.503 540.369 484.256 558.134C467.049 570.454 447.495 576.603 425.592 576.603Z" fill="white"/>
<path d="M660.911 519.64C643.578 519.64 629.526 505.845 629.526 488.828C629.526 471.811 643.578 458.017 660.911 458.017C678.244 458.017 692.295 471.811 692.295 488.828C692.295 505.845 678.244 519.64 660.911 519.64Z" fill="white"/>
<path d="M403.223 519.64C385.89 519.64 371.839 505.845 371.839 488.828C371.839 471.811 385.89 458.017 403.223 458.017C420.556 458.017 434.608 471.811 434.608 488.828C434.608 505.845 420.556 519.64 403.223 519.64Z" fill="white"/>
</g>
</svg>
