<svg width="832" height="950" viewBox="0 0 832 950" fill="none" xmlns="http://www.w3.org/2000/svg">
<rect width="832" height="558" fill="#0B4650"/>
<g opacity="0.15">
<path d="M299.719 489.115C299.719 527.149 285.052 559.672 255.721 586.66C226.39 613.649 191.192 627.132 150.127 627.132C141.13 627.132 132.136 626.407 123.142 624.958V573.353C131.745 575.527 140.741 576.603 150.127 576.603C176.328 576.603 198.719 567.994 217.295 550.8C235.872 533.584 245.161 512.854 245.161 488.566C245.161 464.301 235.872 443.549 217.295 426.354C198.719 409.138 176.328 400.529 150.127 400.529C123.923 400.529 101.535 409.138 82.9559 426.354C64.3793 443.549 55.0922 464.301 55.0922 488.566L54.5576 949.193H0L0.534589 488.566C0.534589 450.532 15.1028 417.922 44.2392 390.757C73.3757 363.593 108.574 350 149.834 350C191.094 350 226.39 363.593 255.721 390.757C285.052 417.922 299.719 450.708 299.719 489.115Z" fill="white"/>
<path d="M300.029 390.757C329.36 363.593 364.654 350 405.916 350C447.176 350 482.47 363.593 511.804 390.757C541.135 417.922 555.801 450.62 555.801 488.852C555.801 527.062 541.135 559.672 511.804 586.66C482.47 613.649 447.176 627.132 405.916 627.132C364.654 627.132 329.458 613.649 300.322 586.66C271.185 559.672 256.617 527.062 256.617 488.852C256.617 450.62 271.087 417.922 300.029 390.757ZM406.209 576.603C432.411 576.603 454.801 567.994 473.378 550.8C491.954 533.584 501.244 512.854 501.244 488.566C501.244 459.953 489.12 436.939 464.871 419.569C459.006 415.221 452.748 411.597 446.1 408.699C443.754 407.601 441.407 406.7 439.061 405.975C428.501 402.352 417.55 400.529 406.209 400.529C380.005 400.529 357.615 409.138 339.038 426.354C320.462 443.549 311.175 464.301 311.175 488.566C311.175 517.202 323.298 540.369 347.545 558.134C364.753 570.454 384.307 576.603 406.209 576.603Z" fill="white"/>
<path d="M170.891 519.64C188.224 519.64 202.275 505.845 202.275 488.828C202.275 471.811 188.224 458.017 170.891 458.017C153.557 458.017 139.506 471.811 139.506 488.828C139.506 505.845 153.557 519.64 170.891 519.64Z" fill="white"/>
<path d="M428.578 519.64C445.911 519.64 459.962 505.845 459.962 488.828C459.962 471.811 445.911 458.017 428.578 458.017C411.245 458.017 397.194 471.811 397.194 488.828C397.194 505.845 411.245 519.64 428.578 519.64Z" fill="white"/>
</g>
</svg>
